<svg version="1.1" viewBox="0.0 0.0 222.08923884514437 100.0" fill="none" stroke="none" stroke-linecap="square" stroke-miterlimit="10" xmlns:xlink="http://www.w3.org/1999/xlink" xmlns="http://www.w3.org/2000/svg"><clipPath id="p.0"><path d="m0 0l222.08923 0l0 100.0l-222.08923 0l0 -100.0z" clip-rule="nonzero"/></clipPath><g clip-path="url(#p.0)"><path fill="#000000" fill-opacity="0.0" d="m0 0l222.08923 0l0 100.0l-222.08923 0z" fill-rule="evenodd"/><path fill="#00b4e8" d="m40.960327 11.672839c-1.6383095 0 -3.2273445 0.12112808 -4.8143272 0.29358196c-1.6136742 2.5416365 -10.390327 17.672382 -0.5378914 35.41867c0.17039871 0.29358292 0.34080124 0.61180115 0.48861694 0.90332794c0.9772377 -0.414711 1.9791107 -0.90332794 2.9809837 -1.4658546c3.9356346 -2.1987839 7.750145 -3.592781 11.416836 -4.4488907c-3.8884163 -12.342747 -0.9546547 -22.92811 1.7101631 -29.037891c-3.5435104 -1.1004171 -7.3333817 -1.6629448 -11.244381 -1.6629448z" fill-rule="evenodd"/><path fill="#00b4e8" d="m27.517162 14.117984l0 0c-13.2973995 4.962146 -23.100563 17.109856 -24.664963 31.70271c0.14781737 0.07390976 0.29358172 0.12112808 0.4639821 0.24430847c0.45987606 0.31821823 7.9184923 5.3645363 18.592134 5.3645363c2.4205074 0 5.0052586 -0.25867844 7.711136 -0.8910103c-8.335255 -15.22929 -5.255726 -28.842854 -2.102291 -36.420544z" fill-rule="evenodd"/><path fill="#3264ff" d="m58.413036 15.877421c-2.2726898 5.2064543 -4.9375076 14.568217 -1.1476364 25.519016c0.69597244 -0.036952972 1.385788 -0.05337906 2.0653343 -0.05337906c8.48307 0 15.483864 2.6976662 19.737717 4.8923454c-1.2954483 -13.248127 -9.337128 -24.517147 -20.655415 -30.357983z" fill-rule="evenodd"/><path fill="#00b4e8" d="m53.011543 48.754456c-3.373108 0.6836586 -6.9905243 1.9298401 -10.657215 4.007492c-1.1989632 0.6610718 -2.3712387 1.2482376 -3.5455627 1.7614899c5.159233 14.76326 0.34285355 27.352364 -2.931713 33.46215c1.6608925 0.21967316 3.3238373 0.34284973 5.034004 0.34284973c4.3996162 0 8.628834 -0.75756073 12.539833 -2.1022873c2.90913 -4.8163834 9.778526 -19.164932 0.58716583 -35.541855c-0.36749268 -0.6590195 -0.7082939 -1.2954559 -1.0265121 -1.9298401z" fill-rule="evenodd"/><path fill="#00b4e8" d="m2.827564 53.519512l0 0c1.4186356 15.424328 11.977309 28.183834 26.204727 32.852398c2.4205074 -3.9356308 8.261345 -15.594727 3.4223824 -29.600414l0 0c-3.691328 1.001873 -7.236891 1.3939972 -10.511456 1.3939972c-8.481019 0 -15.301146 -2.6894531 -19.115654 -4.645981z" fill-rule="evenodd"/><path fill="#3264ff" d="m60.32029 48.14266c7.0398026 13.053089 5.571892 24.956493 2.8105812 33.07207c8.702747 -6.2083282 14.691402 -15.962219 15.8883095 -27.13269c-1.8579788 -1.3200912 -9.018906 -5.695072 -18.69889 -5.9393806z" fill-rule="evenodd"/><path fill="#eff2f4" d="m93.5874 27.462605l0 8.48307l17.183762 0l0 36.519093l10.56073 0l0 -36.519093l13.541702 0l0 -8.48307z" fill-rule="evenodd"/><path fill="#eff2f4" d="m156.8491 26.729675c-7.333374 0 -13.200912 2.59091 -16.892227 6.7462196l6.4300537 6.5019073c2.2480469 -3.0302544 5.571884 -4.496109 9.48288 -4.496109c4.816391 0 7.3087463 2.0530167 7.3087463 5.596527c0 2.1762009 -0.7082825 4.498165 -4.765045 8.285984l-17.64981 16.401566l0 6.748268l34.320312 0l0 -8.48307l-19.409225 0l10.511444 -9.776474c6.403366 -5.8428917 7.6495514 -9.852436 7.6495514 -14.202782c0 -8.187437 -6.770859 -13.322037 -16.98668 -13.322037z" fill-rule="evenodd"/><path fill="#eff2f4" d="m200.47986 26.729675c-13.028458 0 -19.286057 6.380783 -19.286057 14.030327c0 16.695148 26.594803 10.903584 26.594803 19.335327c0 2.763363 -2.5662842 4.8163834 -8.848511 4.8163834c-5.500046 0 -11.244385 -1.9565277 -15.081482 -4.693199l-2.8105774 8.359886c4.179947 2.810585 11.047287 4.693199 17.867416 4.693199c13.077728 0 19.40924 -6.454689 19.40924 -13.983105c0 -16.52269 -26.594803 -10.802982 -26.594803 -19.088963c0 -2.8126373 2.420517 -5.1346016 8.678116 -5.1346016c4.0813904 0 8.431747 1.1743279 12.685593 3.5455627l3.2745667 -7.9205437c-4.2518005 -2.6155453 -10.143967 -3.9602737 -15.888306 -3.9602737z" fill-rule="evenodd"/></g></svg>